<svg width="18" height="16" viewBox="0 0 18 16" fill="none" xmlns="http://www.w3.org/2000/svg">
<path d="M15.2079 2.68531C14.8493 2.32811 14.4235 2.04475 13.9549 1.85142C13.4863 1.6581 12.9841 1.55859 12.4768 1.55859C11.9696 1.55859 11.4673 1.6581 10.9987 1.85142C10.5301 2.04475 10.1044 2.32811 9.74578 2.68531L9.00159 3.42628L8.2574 2.68531C7.53308 1.96413 6.55069 1.55897 5.52635 1.55897C4.50201 1.55897 3.51962 1.96413 2.7953 2.68531C2.07098 3.40649 1.66406 4.38463 1.66406 5.40454C1.66406 6.42445 2.07098 7.40259 2.7953 8.12377L3.53949 8.86474L9.00159 14.3032L14.4637 8.86474L15.2079 8.12377C15.5666 7.76674 15.8512 7.34282 16.0454 6.87625C16.2396 6.40967 16.3395 5.90958 16.3395 5.40454C16.3395 4.8995 16.2396 4.39941 16.0454 3.93283C15.8512 3.46626 15.5666 3.04234 15.2079 2.68531V2.68531Z" stroke="#FF5C00" stroke-width="1.5" stroke-linecap="round" stroke-linejoin="round"/>
</svg>
