<svg width="43" height="47" viewBox="0 0 43 47" fill="none" xmlns="http://www.w3.org/2000/svg">
<path d="M19.2867 19.6793C19.1122 19.8442 18.9858 19.9584 18.8658 20.0789L11.0055 27.968C10.4317 28.5439 10.2598 28.5426 9.68601 27.968C9.27398 27.5527 8.86152 27.1388 8.44865 26.7261C7.88874 26.1628 7.88621 25.9954 8.43854 25.441C11.9615 21.9043 15.4852 18.3684 19.0099 14.8334C19.1728 14.6932 19.3442 14.5631 19.523 14.444C19.2133 14.1903 18.9846 14.0165 18.7811 13.8198C18.4778 13.5281 18.4676 13.2109 18.7672 12.9065C19.4333 12.2329 20.0993 11.558 20.7755 10.8946C21.0966 10.58 21.3835 10.5939 21.7235 10.9098C21.8271 11.0062 21.9232 11.1115 22.0255 11.2104C22.1279 11.3094 22.2063 11.3792 22.3415 11.5047L22.8016 10.9643C21.8928 10.0865 21.4113 9.01586 21.549 7.70925C21.6439 6.80317 22.0704 5.96466 22.746 5.35609C23.8999 4.27402 26.2015 3.78309 28.2035 5.80262C28.3046 5.60502 28.4258 5.41841 28.565 5.24573C29.6381 4.15097 30.7136 3.05621 31.8082 1.98809C33.7041 0.141085 35.9538 -0.455133 38.4665 0.351664C40.9791 1.15846 42.492 2.97249 42.9091 5.58316C43.2807 7.90334 42.5008 9.88481 40.7946 11.4908C40.4748 11.7914 40.1879 11.7521 39.815 11.3792C38.4854 10.0489 37.1579 8.71732 35.8325 7.3845C35.2688 6.81999 35.0312 6.82126 34.4599 7.39338C33.7685 8.08728 33.0696 8.77864 32.3896 9.47887C32.3029 9.58659 32.2283 9.70358 32.1671 9.82772L32.3074 9.93048C32.7557 9.48057 33.2048 9.03023 33.6548 8.57947C34.178 8.05683 34.379 8.0581 34.906 8.58708C36.1699 9.85056 37.43 11.1149 38.6864 12.38C39.1919 12.8875 39.1919 13.0993 38.699 13.5991C37.875 14.4288 37.0559 15.2597 36.2218 16.0817C36.0954 16.2085 35.9083 16.3963 35.768 16.3811C35.3509 16.3367 35.1436 16.598 34.9022 16.8415C25.2797 26.502 15.6571 36.1611 6.03458 45.819C4.87432 46.9835 3.42714 47.3019 2.06086 46.707C1.57542 46.4936 1.14565 46.1706 0.80503 45.7631C0.464411 45.3556 0.222155 44.8747 0.0971366 44.3578C-0.0278813 43.8409 -0.032283 43.302 0.0842808 42.7831C0.200844 42.2643 0.435222 41.7794 0.769143 41.3664C0.921238 41.185 1.08283 41.0118 1.25322 40.8476C7.3402 34.7357 13.4301 28.6268 19.523 22.5208C19.7897 22.2532 19.8731 22.021 19.7669 21.6582C19.5849 21.0214 19.451 20.3757 19.2867 19.6793ZM21.1218 17.7676C20.9539 17.9725 20.7732 18.1665 20.5809 18.3486C20.3054 18.5756 20.2333 18.8078 20.3281 19.1681C20.5645 20.037 20.7237 20.9263 20.9601 21.794C21.0966 22.295 20.9993 22.6426 20.6264 23.0168C14.4265 29.2175 8.23589 35.4266 2.05454 41.6442C1.92815 41.7711 1.80176 41.8878 1.6918 42.0248C1.43327 42.3204 1.25448 42.6776 1.17246 43.0622C1.09043 43.4469 1.10791 43.8462 1.22322 44.2221C1.33853 44.5981 1.54784 44.9382 1.8312 45.2099C2.11456 45.4817 2.46253 45.6761 2.84195 45.7746C3.78989 46.0283 4.55708 45.6972 5.23327 45.0135C14.8996 35.3057 24.5673 25.6009 34.2362 15.899C34.336 15.8001 34.4308 15.6948 34.5458 15.573C34.4308 15.4461 34.3284 15.3332 34.2185 15.2229C33.2916 14.2926 32.3668 13.3623 31.4442 12.4321C30.6644 11.6494 30.6656 11.6494 31.3898 10.8438C31.4102 10.8131 31.4244 10.7786 31.4315 10.7423C29.9149 9.21248 28.4386 7.67881 26.9169 6.18699C26.2748 5.55272 25.4457 5.40176 24.5824 5.62502C22.636 6.13244 22.0003 8.49448 23.426 9.95965C24.9136 11.4883 26.4341 12.9839 27.9368 14.4973C28.4045 14.9666 28.4083 15.1899 27.9533 15.6478C26.6498 16.9595 25.3437 18.2703 24.0352 19.5803C23.5941 20.0218 23.3615 20.0231 22.9217 19.5867C22.3339 18.9968 21.7487 18.4031 21.1193 17.7688L21.1218 17.7676ZM41.625 8.1266C41.8807 7.32241 41.9316 6.4667 41.7728 5.63771C41.3633 3.53445 40.1386 2.07689 38.1138 1.42866C36.0891 0.780435 34.2185 1.24853 32.6601 2.74415C31.8398 3.53192 31.0562 4.35647 30.2473 5.15439C29.7998 5.59458 29.3347 6.017 28.9101 6.42294L31.3595 8.88012C31.4505 8.79259 31.5782 8.67715 31.6982 8.55664C32.9697 7.28175 34.226 5.99163 35.5216 4.74084C35.8169 4.46277 36.1758 4.26193 36.5668 4.15604C37.2089 3.98733 37.765 4.24611 38.2301 4.71801C39.3348 5.83941 40.4508 6.95319 41.6224 8.13548L41.625 8.1266ZM35.5999 14.94L37.54 12.9915L34.2665 9.72117L32.3327 11.6684L35.5999 14.94ZM21.2988 12.1492L20.0703 13.3365L23.0278 16.3405L24.2639 15.1391L21.2988 12.1492ZM35.95 5.82545C37.4528 7.38831 38.8772 8.86997 40.3408 10.3922C40.6138 10.0256 40.83 9.77318 40.9968 9.49156C41.0238 9.42865 41.0351 9.3601 41.0298 9.29181C41.0246 9.22353 41.0028 9.15755 40.9665 9.09958C39.7615 7.86486 38.5478 6.64536 37.3251 5.44108C37.037 5.15693 36.702 5.18737 36.3936 5.45504C36.223 5.59838 36.0549 5.73539 35.9475 5.82418L35.95 5.82545ZM26.8966 15.0021C26.5491 14.6736 26.1901 14.345 25.8438 14.0013C25.6949 13.8364 25.5545 13.6641 25.4229 13.485L24.8276 14.0761C25.0349 14.2651 25.2068 14.4072 25.3585 14.5632C25.8097 15.0199 25.8109 15.2635 25.3585 15.7163C24.7695 16.3113 24.1868 16.9113 23.589 17.4923C23.3875 17.6558 23.1713 17.8002 22.9431 17.9236L23.455 18.4564L26.8966 15.0021ZM18.8076 16.6601C19.1691 16.853 19.4952 17.0407 19.8365 17.198C19.8905 17.2149 19.9475 17.2194 20.0035 17.2113C20.0595 17.2032 20.113 17.1826 20.16 17.1511C20.5139 16.872 20.8501 16.5701 21.1711 16.2973L20.1537 15.2051L19.1527 16.2973C19.0478 16.4102 18.9416 16.5206 18.8102 16.6589L18.8076 16.6601ZM14.959 20.4823L16.0675 21.0645L17.2341 20.0497C16.8802 19.8632 16.5655 19.6844 16.2381 19.5334C16.1864 19.5122 16.1306 19.5033 16.0749 19.5073C16.0193 19.5112 15.9653 19.528 15.9171 19.5562C15.6049 19.8353 15.3104 20.1385 14.9616 20.481L14.959 20.4823ZM13.0935 22.4193C13.46 22.6122 13.7735 22.7872 14.0971 22.942C14.1409 22.9644 14.1892 22.9767 14.2384 22.978C14.2876 22.9793 14.3364 22.9696 14.3814 22.9496C14.7088 22.6464 15.0134 22.3242 15.361 21.9792L14.1855 21.3664L13.0935 22.4193ZM13.4259 23.8858C13.0581 23.6917 12.7333 23.5052 12.3946 23.3517C12.3402 23.3378 12.2834 23.3361 12.2284 23.3469C12.1733 23.3576 12.1213 23.3805 12.0761 23.4139C11.7474 23.6765 11.4365 23.9619 11.0915 24.2625C12.3769 25.0237 12.3769 25.0237 13.2945 24.057C13.3261 24.0228 13.3463 23.9835 13.4247 23.8858H13.4259ZM16.8979 18.5744C17.277 18.7735 17.6006 18.9549 17.9393 19.1198C17.9867 19.1381 18.0376 19.145 18.0881 19.1399C18.1386 19.1348 18.1872 19.118 18.23 19.0907C18.546 18.7976 18.8418 18.4856 19.1552 18.1697C18.0038 17.4352 18.0038 17.4352 17.1127 18.346C17.0571 18.4018 17.004 18.4602 16.8966 18.5744H16.8979ZM9.47873 26.022L10.275 26.9189L11.4744 25.8203C10.3748 25.0592 10.3496 25.0592 9.48884 26.0055C9.47873 26.022 9.47368 26.036 9.47873 26.022ZM23.6092 11.8396L23.1428 12.2786L24.0276 13.2033L24.5433 12.7834L23.6092 11.8396Z" fill="black"/>
</svg>
