<svg width="80" height="58" viewBox="0 0 80 58" fill="none" xmlns="http://www.w3.org/2000/svg">
<path d="M47.5677 41.1885L47.5677 41.1067L47.5669 37.5024C47.5658 33.0557 47.9069 30.4727 49.0228 26.5008L49.0228 26.5008C51.3617 18.1775 56.7689 11.4117 64.1418 7.60776C64.6064 7.368 65.0206 7.17147 65.3149 7.04883C65.4558 6.99009 65.5929 6.9382 65.7001 6.9114C65.7288 6.90423 65.7652 6.89629 65.8052 6.89149C65.8359 6.88779 65.912 6.87995 66.0016 6.89989C66.09 6.91958 66.3244 7.00452 66.3907 7.27975C66.4413 7.48965 66.3437 7.64708 66.3244 7.67828L66.3243 7.67841L47.5677 41.1885ZM47.5677 41.1885L47.5938 41.266L48.1548 42.9341C48.8982 45.1443 49.9103 46.9088 51.3736 48.5333C53.2521 50.6189 55.5498 52.0384 58.0883 52.664L58.2079 52.1786M47.5677 41.1885L58.2079 52.1786M58.2079 52.1786L58.0883 52.664C59.9338 53.1189 62.7984 53.1268 64.5762 52.6774C67.2754 51.9952 70.1408 50.1727 71.8593 48.0403M58.2079 52.1786L66.3242 7.67856C66.2444 7.80737 65.5957 8.81192 64.8866 9.90542L64.8865 9.90546C63.4908 12.0573 61.6051 15.6751 60.8121 17.7164C59.9627 19.9036 60.2286 21.7366 61.5025 23.1934C62.2927 24.097 63.145 24.5923 64.6724 24.9789C68.9073 26.0506 72.7156 29.5415 74.2589 33.7482C76.0615 38.6614 75.1751 43.9266 71.8593 48.0403M71.8593 48.0403L71.47 47.7265L71.8593 48.0403ZM66.5376 21.0102L66.5376 21.0103C69.4289 21.8657 71.7656 23.2785 74.0619 25.5703L74.4151 25.2164L74.0619 25.5703C77.4269 28.9286 79.2478 33.112 79.479 38.0406L79.9784 38.0171L79.479 38.0406C79.6276 41.205 78.9867 44.2778 77.5628 47.2116L78.0126 47.4299L77.5628 47.2116C75.0349 52.4203 70.1708 56.1747 64.5245 57.2785C63.7725 57.4256 62.5688 57.4821 60.7654 57.4381L60.7654 57.4381C57.8224 57.3666 56.177 57.0017 53.9619 55.9495C48.8983 53.5441 45.1675 48.8295 43.5942 42.7828C43.369 41.9172 43.2189 40.2681 43.1742 38.4019C43.1298 36.5487 43.1903 34.5349 43.3676 32.9615C44.8377 19.9136 50.8457 10.2141 61.1284 4.20212L60.8761 3.77048L61.1285 4.20211C62.7667 3.24422 64.7306 2.31241 66.4815 1.621C67.3565 1.27544 68.172 0.992453 68.8618 0.79666C69.5636 0.597507 70.0968 0.500007 70.4237 0.500007C71.9649 0.500007 73.332 1.60558 73.7065 3.21075C73.8699 3.91117 73.8611 4.44926 73.6422 5.04527C73.4131 5.66932 72.9426 6.38835 72.1025 7.41984C69.4537 10.6722 67.2973 14.0375 65.7137 17.3978L66.166 17.6109L65.7137 17.3978C65.6829 17.4631 65.6528 17.5269 65.6234 17.5892C65.376 18.1136 65.1778 18.5336 65.0461 18.8639C64.9083 19.2097 64.792 19.5716 64.8505 19.9042C64.9232 20.3175 65.2222 20.5348 65.5041 20.6661C65.7378 20.7749 66.0544 20.868 66.404 20.9709C66.4481 20.9838 66.4926 20.9969 66.5376 21.0102ZM22.2522 57.1751L22.3578 57.6638L22.2522 57.1751C20.4207 57.5709 17.1892 57.6112 15.4004 57.2623C8.02625 55.8241 2.26241 49.7526 0.710748 41.6985L0.219774 41.7931L0.710741 41.6985C0.575166 40.9949 0.500543 39.4072 0.500002 37.6481C0.49946 35.9021 0.571604 34.0502 0.713526 32.8405C1.4382 26.6644 3.31636 20.8251 5.9761 16.4262C8.59221 12.0995 12.2584 8.27287 16.543 5.39955C18.2832 4.23259 20.6522 2.99928 22.8297 2.05865C23.9172 1.58888 24.9489 1.19566 25.8229 0.921378C26.7124 0.642223 27.3905 0.502105 27.7923 0.503776C28.7903 0.507983 29.5911 0.877159 30.2215 1.61539C30.5709 2.0245 30.7899 2.37538 30.9249 2.73294C31.0594 3.08908 31.1212 3.48001 31.1191 3.98296C31.1168 4.54799 31.034 4.97326 30.7526 5.52239C30.4568 6.09961 29.9411 6.81446 29.0402 7.94258C27.2705 10.1584 25.4682 12.8264 24.2516 15.0342C23.852 15.7593 23.2773 16.9379 22.8153 17.9415C22.5839 18.4443 22.3779 18.9093 22.2344 19.257C22.1632 19.4294 22.1042 19.5808 22.0649 19.6962C22.0461 19.7517 22.0269 19.813 22.0146 19.8698C22.0088 19.896 21.9999 19.9418 21.9981 19.995C21.9973 20.0214 21.9974 20.0678 22.0088 20.123C22.0189 20.1724 22.0481 20.2797 22.1427 20.3772L22.1443 20.3788C22.1979 20.4336 22.2529 20.4633 22.2595 20.467C22.278 20.4775 22.2942 20.4852 22.3038 20.4896C22.311 20.493 22.3182 20.4962 22.3252 20.4991C22.3374 20.5043 22.3488 20.5089 22.3583 20.5126C22.3896 20.5248 22.4282 20.5386 22.4699 20.5531C22.5546 20.5824 22.6707 20.6204 22.808 20.6643C23.0837 20.7522 23.4558 20.8667 23.8585 20.9866C26.7804 21.8573 29.3186 23.3972 31.4998 25.6257C33.7603 27.9356 35.3832 30.7842 36.2458 33.9615L36.7283 33.8304L36.2458 33.9615C36.5014 34.9028 36.6832 36.3368 36.7581 37.8134C36.833 39.2889 36.7988 40.7595 36.6411 41.7712C35.4482 49.4276 29.7102 55.5639 22.2522 57.1751ZM65.4741 7.15189C65.4733 7.1533 65.4723 7.15483 65.4713 7.15649C65.4722 7.15502 65.4729 7.15381 65.4735 7.15287L65.4741 7.15189ZM22.7989 8.9952L22.3841 8.71597L22.7989 8.99518C23.0463 8.62773 23.2722 8.28153 23.4372 8.019C23.5194 7.88834 23.5887 7.77485 23.6386 7.6884C23.6631 7.64601 23.6863 7.60421 23.7047 7.56747C23.7136 7.5498 23.7252 7.52561 23.7358 7.49898C23.7411 7.48578 23.7488 7.46516 23.7559 7.44008C23.761 7.42211 23.7759 7.36783 23.7759 7.29758C23.7759 7.129 23.6943 6.95024 23.5222 6.846C23.392 6.76721 23.2642 6.76562 23.2122 6.76706C23.0982 6.77022 22.9888 6.80451 22.9195 6.82849C22.7611 6.88335 22.5564 6.97864 22.3316 7.09347C21.8737 7.32738 21.2532 7.68364 20.582 8.0925C19.2415 8.90908 17.6542 9.96296 16.6969 10.7243L17.0081 11.1156L16.6969 10.7243C12.0694 14.4047 8.58767 19.5384 6.70451 25.4423C5.1089 30.4449 4.35328 37.0161 4.98288 40.7112C5.98619 46.5991 10.0142 51.2686 15.3726 52.6611C16.2054 52.8775 17.3594 52.9908 18.4941 53.0074C19.6293 53.024 20.7932 52.9445 21.6472 52.7535L21.6473 52.7535C25.7498 51.8357 29.5188 48.6836 31.2622 44.7307L30.8048 44.529L31.2622 44.7307C32.917 40.9785 32.8783 36.3187 31.1542 32.6834C29.3297 28.8364 26.1967 26.2148 21.9353 24.9449C21.48 24.8093 20.9908 24.6331 20.5721 24.4595C20.14 24.2803 19.8251 24.1209 19.6904 24.025C17.974 22.8021 17.2095 20.5331 17.838 18.566L17.838 18.566C18.5095 16.4634 20.9535 11.7363 22.7989 8.9952Z" fill="#FF5C00" stroke="white"/>
</svg>
