<svg width="93" height="17" viewBox="0 0 93 17" fill="none" xmlns="http://www.w3.org/2000/svg">
<path d="M27.1598 0.675564C27.3005 0.396127 27.6995 0.396126 27.8402 0.675564L29.9398 4.84504C29.9952 4.95508 30.1004 5.03152 30.2221 5.05021L34.8364 5.75858C35.1456 5.80606 35.2689 6.18547 35.0466 6.40565L31.73 9.6909C31.6425 9.7776 31.6023 9.90128 31.6221 10.0229L32.3743 14.6301C32.4247 14.9389 32.102 15.1734 31.8239 15.0301L27.6745 12.891C27.565 12.8345 27.435 12.8345 27.3255 12.891L23.1761 15.0301C22.898 15.1734 22.5753 14.9389 22.6257 14.6301L23.3779 10.0229C23.3977 9.90128 23.3575 9.7776 23.27 9.6909L19.9534 6.40565C19.7311 6.18547 19.8544 5.80606 20.1636 5.75858L24.7779 5.05021C24.8996 5.03152 25.0048 4.95508 25.0602 4.84505L27.1598 0.675564Z" fill="#FFA650"/>
<path d="M46.1598 0.675564C46.3005 0.396127 46.6995 0.396126 46.8402 0.675564L48.9398 4.84504C48.9952 4.95508 49.1004 5.03152 49.2221 5.05021L53.8364 5.75858C54.1456 5.80606 54.2689 6.18547 54.0466 6.40565L50.73 9.6909C50.6425 9.7776 50.6023 9.90128 50.6221 10.0229L51.3743 14.6301C51.4247 14.9389 51.102 15.1734 50.8239 15.0301L46.6745 12.891C46.565 12.8345 46.435 12.8345 46.3255 12.891L42.1761 15.0301C41.898 15.1734 41.5753 14.9389 41.6257 14.6301L42.3779 10.0229C42.3977 9.90128 42.3575 9.7776 42.27 9.6909L38.9534 6.40565C38.7311 6.18547 38.8544 5.80606 39.1636 5.75858L43.7779 5.05021C43.8996 5.03152 44.0048 4.95508 44.0602 4.84505L46.1598 0.675564Z" fill="#FFA650"/>
<path d="M8.15981 0.675564C8.30053 0.396127 8.69947 0.396126 8.84019 0.675564L10.9398 4.84504C10.9952 4.95508 11.1004 5.03152 11.2221 5.05021L15.8364 5.75858C16.1456 5.80606 16.2689 6.18547 16.0466 6.40565L12.73 9.6909C12.6425 9.7776 12.6023 9.90128 12.6221 10.0229L13.3743 14.6301C13.4247 14.9389 13.102 15.1734 12.8239 15.0301L8.67453 12.891C8.56502 12.8345 8.43498 12.8345 8.32547 12.891L4.17613 15.0301C3.89804 15.1734 3.57529 14.9389 3.6257 14.6301L4.37787 10.0229C4.39772 9.90128 4.35753 9.7776 4.27001 9.6909L0.953396 6.40565C0.731118 6.18547 0.854398 5.80606 1.16364 5.75858L5.77786 5.05021C5.89963 5.03152 6.00484 4.95508 6.06025 4.84505L8.15981 0.675564Z" fill="#FFA650"/>
<path d="M65.1598 0.675564C65.3005 0.396127 65.6995 0.396126 65.8402 0.675564L67.9398 4.84504C67.9952 4.95508 68.1004 5.03152 68.2221 5.05021L72.8364 5.75858C73.1456 5.80606 73.2689 6.18547 73.0466 6.40565L69.73 9.6909C69.6425 9.7776 69.6023 9.90128 69.6221 10.0229L70.3743 14.6301C70.4247 14.9389 70.102 15.1734 69.8239 15.0301L65.6745 12.891C65.565 12.8345 65.435 12.8345 65.3255 12.891L61.1761 15.0301C60.898 15.1734 60.5753 14.9389 60.6257 14.6301L61.3779 10.0229C61.3977 9.90128 61.3575 9.7776 61.27 9.6909L57.9534 6.40565C57.7311 6.18547 57.8544 5.80606 58.1636 5.75858L62.7779 5.05021C62.8996 5.03152 63.0048 4.95508 63.0602 4.84505L65.1598 0.675564Z" fill="#FFA650"/>
<path d="M84.1598 0.675564C84.3005 0.396127 84.6995 0.396126 84.8402 0.675564L86.9398 4.84504C86.9952 4.95508 87.1004 5.03152 87.2221 5.05021L91.8364 5.75858C92.1456 5.80606 92.2689 6.18547 92.0466 6.40565L88.73 9.6909C88.6425 9.7776 88.6023 9.90128 88.6221 10.0229L89.3743 14.6301C89.4247 14.9389 89.102 15.1734 88.8239 15.0301L84.6745 12.891C84.565 12.8345 84.435 12.8345 84.3255 12.891L80.1761 15.0301C79.898 15.1734 79.5753 14.9389 79.6257 14.6301L80.3779 10.0229C80.3977 9.90128 80.3575 9.7776 80.27 9.6909L76.9534 6.40565C76.7311 6.18547 76.8544 5.80606 77.1636 5.75858L81.7779 5.05021C81.8996 5.03152 82.0048 4.95508 82.0602 4.84505L84.1598 0.675564Z" fill="#FFA650"/>
</svg>
