<svg width="12" height="14" viewBox="0 0 12 14" fill="none" xmlns="http://www.w3.org/2000/svg">
<path d="M10.0807 13.5C9.59184 13.5 9.17795 13.3278 8.83906 12.9833C8.50017 12.6389 8.33073 12.2222 8.33073 11.7333C8.33073 11.6556 8.33906 11.5611 8.35573 11.45C8.3724 11.3389 8.3974 11.2444 8.43073 11.1667L3.23073 8.13333C3.07517 8.32222 2.88073 8.475 2.6474 8.59167C2.41406 8.70833 2.17517 8.76667 1.93073 8.76667C1.44184 8.76667 1.02517 8.59445 0.680729 8.25C0.336285 7.90556 0.164062 7.48889 0.164062 7C0.164062 6.51111 0.336285 6.09444 0.680729 5.75C1.02517 5.40556 1.44184 5.23333 1.93073 5.23333C2.17517 5.23333 2.41128 5.28611 2.63906 5.39167C2.86684 5.49722 3.06406 5.64444 3.23073 5.83333L8.43073 2.83333C8.3974 2.74444 8.3724 2.65 8.35573 2.55C8.33906 2.45 8.33073 2.35556 8.33073 2.26667C8.33073 1.77778 8.50017 1.36111 8.83906 1.01667C9.17795 0.672222 9.59184 0.5 10.0807 0.5C10.5696 0.5 10.9863 0.672222 11.3307 1.01667C11.6752 1.36111 11.8474 1.77222 11.8474 2.25C11.8474 2.75 11.6752 3.16944 11.3307 3.50833C10.9863 3.84722 10.5696 4.01667 10.0807 4.01667C9.82517 4.01667 9.58351 3.97222 9.35573 3.88333C9.12795 3.79444 8.93628 3.65556 8.78073 3.46667L3.5974 6.4C3.61962 6.48889 3.63906 6.58889 3.65573 6.7C3.6724 6.81111 3.68073 6.91111 3.68073 7C3.68073 7.08889 3.6724 7.18056 3.65573 7.275C3.63906 7.36944 3.61962 7.46111 3.5974 7.55L8.78073 10.5167C8.93628 10.3611 9.1224 10.2333 9.33906 10.1333C9.55573 10.0333 9.80295 9.98333 10.0807 9.98333C10.5696 9.98333 10.9863 10.1528 11.3307 10.4917C11.6752 10.8306 11.8474 11.2444 11.8474 11.7333C11.8474 12.2222 11.6752 12.6389 11.3307 12.9833C10.9863 13.3278 10.5696 13.5 10.0807 13.5Z" fill="#FF5C00"/>
</svg>
