<svg width="16" height="13" viewBox="0 0 16 13" fill="none" xmlns="http://www.w3.org/2000/svg">
<path d="M15.9642 1.60662C15.4391 1.84289 14.914 1.98465 14.3411 2.07916C14.5798 2.0319 14.9617 1.55937 15.1527 1.37035C15.3913 1.08683 15.5823 0.756057 15.6778 0.425282C15.6778 0.378029 15.7255 0.378029 15.6778 0.330775C15.63 0.330775 15.63 0.330775 15.5823 0.330775C14.9617 0.66155 14.3411 0.897818 13.6728 1.03958C13.625 1.03958 13.5773 1.03958 13.5296 0.992325C13.4818 0.945071 13.4341 0.850564 13.3386 0.803311C13.0522 0.567043 12.7658 0.378029 12.4316 0.236268C12.002 0.0472536 11.4768 0 10.9995 0C10.5221 0.0472536 10.0447 0.141761 9.66281 0.378029C9.23317 0.614296 8.85126 0.897818 8.56484 1.27585C8.27841 1.65387 8.03972 2.07916 7.89651 2.55169C7.80103 3.02423 7.80103 3.44951 7.84877 3.92205C7.84877 4.01655 7.84877 4.01655 7.80103 4.01655C5.17546 3.63852 2.97952 2.69345 1.21322 0.708803C1.11774 0.614296 1.11774 0.614296 1.02227 0.708803C0.3062 1.89014 0.688103 3.73303 1.64286 4.63085C1.78607 4.77261 1.88155 4.86712 2.02476 4.96162C1.97702 4.96162 1.30869 4.91437 0.73584 4.63085C0.640365 4.5836 0.640365 4.63085 0.592627 4.6781C0.592627 4.81986 0.592627 4.91437 0.592627 5.05613C0.73584 6.23747 1.54738 7.27705 2.69309 7.70233C2.8363 7.74959 2.97952 7.79684 3.12273 7.84409C2.88404 7.89135 2.59761 7.9386 1.88155 7.89135C1.78607 7.89135 1.73833 7.9386 1.78607 7.98585C2.31119 9.45071 3.50463 9.92325 4.41165 10.1595C4.50713 10.1595 4.65034 10.1595 4.74582 10.2068C4.45939 10.6321 3.45689 10.9628 2.97952 11.1518C2.12024 11.4354 1.16548 11.5771 0.258463 11.4826C0.115249 11.4826 0.0675114 11.4826 0.0197736 11.4826C-0.0279642 11.5299 0.0197736 11.5299 0.0675114 11.5771C0.258463 11.7189 0.449414 11.8134 0.640365 11.9079C1.21322 12.1914 1.83381 12.4749 2.4544 12.6167C5.70057 13.5145 9.37638 12.853 11.811 10.443C13.7205 8.5529 14.3888 5.95395 14.3888 3.355C14.3888 3.2605 14.5321 3.21324 14.5798 3.16599C15.0572 2.78796 15.4868 2.36268 15.8687 1.84289C15.9642 1.74838 15.9642 1.65387 15.9642 1.60662C16.0119 1.55937 16.0119 1.55937 15.9642 1.60662Z" fill="#1DA1F2"/>
</svg>
