<svg width="22" height="23" viewBox="0 0 22 23" fill="none" xmlns="http://www.w3.org/2000/svg">
<g clip-path="url(#clip0_23_4531)">
<path d="M1.20166 6.36682C2.11086 4.43265 3.48182 2.91689 5.24357 1.77768C9.27832 -0.838392 14.4933 -0.541847 18.1903 2.50069C18.7525 2.96313 18.7532 2.96387 18.2434 3.49237C17.4037 4.36072 16.5612 5.22687 15.7252 6.0989C15.6054 6.22368 15.5294 6.30442 15.3566 6.14587C12.2203 3.25894 6.82822 4.38494 5.03492 8.96894C4.99548 9.0695 4.93883 9.16199 4.89151 9.25815C4.76316 9.16933 4.62979 9.08785 4.5079 8.99096C3.40462 8.11747 2.30254 7.24275 1.20166 6.36682Z" fill="#E44436"/>
<path d="M4.87674 13.7617C5.04381 13.9746 5.09185 14.244 5.20873 14.4825C7.13038 18.5197 11.6384 19.4585 14.8887 17.4634C14.951 17.4299 15.0152 17.4 15.0808 17.3739C15.2242 17.4964 15.3676 17.622 15.5204 17.7409C16.5543 18.5733 17.6256 19.3557 18.6309 20.2278C17.3115 21.5028 15.7434 22.3014 13.9859 22.6846C10.048 23.5434 6.53309 22.6713 3.53159 19.8732C2.55552 18.9684 1.76443 17.8744 1.2041 16.6545C1.29086 16.5907 1.37834 16.5283 1.46295 16.4615L4.87674 13.7617Z" fill="#35A353"/>
<path d="M18.6276 20.2284C17.6223 19.3593 16.5511 18.5739 15.5185 17.7445C15.3694 17.6248 15.2253 17.4993 15.079 17.3775C15.7645 16.8357 16.3696 16.2243 16.7748 15.4249C16.9612 15.0427 17.1115 14.643 17.2236 14.2314C17.3004 13.962 17.2287 13.8688 16.9368 13.871C15.1701 13.8828 13.4026 13.8659 11.6351 13.8864C11.2766 13.8901 11.2049 13.7851 11.2092 13.4387C11.2307 12.2165 11.2257 10.9936 11.2092 9.76853C11.2092 9.50722 11.2809 9.44556 11.5297 9.4463C14.8615 9.45461 18.1931 9.45608 21.5244 9.4507C21.6821 9.4507 21.8112 9.43161 21.8428 9.67091C22.359 13.5649 21.6233 17.0846 18.8986 20.006C18.8219 20.0934 18.7552 20.2013 18.6276 20.2284Z" fill="#4280EE"/>
<path d="M4.87648 13.7618L1.46484 16.4608C1.38023 16.5276 1.29275 16.59 1.20599 16.6538C0.56959 15.4208 0.179579 14.0703 0.0587405 12.6813C-0.157657 10.5683 0.207175 8.4355 1.11206 6.52354C1.13787 6.46922 1.17229 6.4193 1.20313 6.36719C2.30258 7.24215 3.40441 8.11686 4.50865 8.99133C4.63054 9.08823 4.76391 9.1697 4.89226 9.25852C4.82056 9.71509 4.67715 10.154 4.61692 10.615C4.49723 11.6004 4.58052 12.6006 4.86143 13.5511C4.8918 13.617 4.89717 13.6921 4.87648 13.7618Z" fill="#F5B705"/>
</g>
<defs>
<clipPath id="clip0_23_4531">
<rect width="22" height="23" fill="white"/>
</clipPath>
</defs>
</svg>
