<svg width="68" height="67" viewBox="0 0 68 67" fill="none" xmlns="http://www.w3.org/2000/svg">
<g opacity="0.3">
<path d="M9.13354 18.5659C9.13354 13.9409 9.13354 11.6285 10.5703 10.1917C12.0071 8.75488 14.3196 8.75488 18.9445 8.75488H48.9907C53.6156 8.75488 55.9281 8.75488 57.3649 10.1917C58.8017 11.6285 58.8017 13.9409 58.8017 18.5659V48.612C58.8017 53.237 58.8017 55.5494 57.3649 56.9862C55.9281 58.423 53.6156 58.423 48.9907 58.423H18.9445C14.3196 58.423 12.0071 58.423 10.5703 56.9862C9.13354 55.5494 9.13354 53.237 9.13354 48.612V18.5659Z" stroke="#33363F" stroke-width="2.45275"/>
<path fill-rule="evenodd" clip-rule="evenodd" d="M56.3488 43.1979L49.3407 36.1898L49.2836 36.1327L49.2836 36.1326C48.5149 35.3639 47.8526 34.7015 47.2509 34.2424C46.606 33.7504 45.8888 33.3779 45.0049 33.3779C44.1209 33.3779 43.4037 33.7504 42.7588 34.2424C42.1571 34.7015 41.4948 35.3639 40.7261 36.1327L40.669 36.1898L35.662 41.1968C35.0532 41.8056 34.6925 42.1617 34.4125 42.3697L34.4002 42.3787L34.3922 42.3658C34.2094 42.0687 34.0068 41.6041 33.6676 40.8127L29.6709 31.4869L29.6323 31.3969C29.0187 29.965 28.5043 28.7646 27.9736 27.9021C27.4186 27 26.6945 26.2125 25.5579 25.9936C24.4212 25.7747 23.4564 26.237 22.6061 26.8684C21.7931 27.4721 20.8697 28.3956 19.7681 29.4973L19.6989 29.5665L11.5862 37.6792V41.1479L21.4333 31.3008C22.6224 30.1117 23.4183 29.3203 24.0684 28.8376C24.6983 28.3698 24.9527 28.3749 25.094 28.4021C25.2353 28.4293 25.4735 28.5191 25.8846 29.1873C26.3089 29.877 26.754 30.9074 27.4164 32.4531L31.4132 41.7789L31.446 41.8555L31.446 41.8555C31.7408 42.5436 32.0137 43.1805 32.3032 43.6511C32.6166 44.1605 33.1002 44.7287 33.9173 44.8861C34.7345 45.0435 35.3945 44.6955 35.8747 44.3389C36.3183 44.0095 36.8082 43.5195 37.3374 42.9901L37.3964 42.9311L42.4033 37.9242C43.2454 37.0821 43.7916 36.5396 44.2466 36.1924C44.6733 35.8669 44.8728 35.8306 45.0049 35.8306C45.1369 35.8306 45.3364 35.8669 45.7631 36.1924C46.2181 36.5396 46.7643 37.0821 47.6064 37.9242L55.175 45.4928L56.3488 44.319V43.1979ZM34.2325 42.4832C34.2325 42.4831 34.2344 42.4823 34.2379 42.4811C34.2342 42.4827 34.2324 42.4833 34.2325 42.4832ZM34.5129 42.5341C34.5157 42.5365 34.5171 42.5379 34.5171 42.538C34.5171 42.5381 34.5157 42.537 34.5129 42.5341Z" fill="#33363F"/>
<circle cx="46.3846" cy="21.1712" r="4.13901" fill="#33363F"/>
</g>
</svg>
