<svg width="29" height="29" viewBox="0 0 29 29" fill="none" xmlns="http://www.w3.org/2000/svg">
<path d="M11.4785 17.5215L11.4785 13.8965" stroke="#33363F" stroke-width="2" stroke-linecap="round"/>
<path d="M17.5215 17.5215L17.5215 13.8965" stroke="#33363F" stroke-width="2" stroke-linecap="round"/>
<path d="M3.625 7.85449H25.375H25.1458C23.2602 7.85449 22.3174 7.85449 21.7316 8.44028C21.1458 9.02607 21.1458 9.96887 21.1458 11.8545V19.5628C21.1458 21.4484 21.1458 22.3913 20.56 22.977C19.9743 23.5628 19.0315 23.5628 17.1458 23.5628H11.8542C9.96855 23.5628 9.02574 23.5628 8.43995 22.977C7.85417 22.3913 7.85417 21.4484 7.85417 19.5628V11.8545C7.85417 9.96887 7.85417 9.02607 7.26838 8.44028C6.68259 7.85449 5.73978 7.85449 3.85417 7.85449H3.625Z" stroke="#33363F" stroke-width="2" stroke-linecap="round"/>
<path d="M11.4798 4.23011C11.4798 4.23011 12.084 3.02148 14.5007 3.02148C16.9173 3.02148 17.5215 4.22982 17.5215 4.22982" stroke="#33363F" stroke-width="2" stroke-linecap="round"/>
</svg>
